<svg width="24" height="24" viewBox="0 0 24 24" fill="none" xmlns="http://www.w3.org/2000/svg">
<path d="M12.4062 2.16211C8.21903 2.16211 4.8125 5.56864 4.8125 9.75586C4.8125 11.0962 5.16662 12.4139 5.83653 13.5665C5.99271 13.8352 6.16729 14.0971 6.3555 14.3448L12.0763 21.9988H12.7362L18.457 14.3449C18.6452 14.0971 18.8198 13.8353 18.976 13.5665C19.6459 12.4139 20 11.0962 20 9.75586C20 5.56864 16.5935 2.16211 12.4062 2.16211ZM12.4062 12.2742C11.0176 12.2742 9.88791 11.1445 9.88791 9.75586C9.88791 8.36725 11.0176 7.23752 12.4062 7.23752C13.7949 7.23752 14.9246 8.36725 14.9246 9.75586C14.9246 11.1445 13.7949 12.2742 12.4062 12.2742Z" fill="#00B24A"/>
</svg>
