<svg width="16" height="16" viewBox="0 0 16 16" fill="none" xmlns="http://www.w3.org/2000/svg">
<path d="M15.8612 4.03697C15.7601 2.4505 14.3559 1.20759 12.6646 1.20759H11.8412V0.603795C11.8412 0.443658 11.7737 0.290081 11.6537 0.176847C11.5337 0.0636139 11.3709 0 11.2011 0C11.0314 0 10.8686 0.0636139 10.7486 0.176847C10.6285 0.290081 10.5611 0.443658 10.5611 0.603795V1.20759H5.44083V0.603795C5.44083 0.443658 5.3734 0.290081 5.25337 0.176847C5.13334 0.0636139 4.97054 0 4.80079 0C4.63105 0 4.46825 0.0636139 4.34822 0.176847C4.22819 0.290081 4.16076 0.443658 4.16076 0.603795V1.20759H3.33736C1.64575 1.20759 0.241517 2.4505 0.140712 4.03697C-0.049058 7.02092 -0.0455378 10.0477 0.151272 13.0332C0.251118 14.5493 1.53854 15.7639 3.14567 15.8581C4.75631 15.9526 6.37848 15.9997 8.00064 15.9997C9.62249 15.9997 11.245 15.9526 12.8556 15.8581C14.4627 15.7639 15.7502 14.5493 15.85 13.0332C16.0471 10.0493 16.0507 7.02274 15.8612 4.03697ZM14.5728 12.9583C14.5432 13.3986 14.3444 13.8135 14.0137 14.1255C13.6831 14.4374 13.2432 14.6249 12.7766 14.6529C9.60776 14.8386 6.39416 14.8386 3.22535 14.6529C2.75868 14.6249 2.31883 14.4374 1.98818 14.1255C1.65752 13.8135 1.45876 13.3986 1.4291 12.9583C1.27908 10.6544 1.24523 8.34496 1.32765 6.03795H14.6746C14.7552 8.34444 14.7242 10.6639 14.5728 12.9583ZM4.80079 3.62277C4.97054 3.62277 5.13334 3.55915 5.25337 3.44592C5.3734 3.33269 5.44083 3.17911 5.44083 3.01897V2.41518H10.5611V3.01897C10.5611 3.17911 10.6285 3.33269 10.7486 3.44592C10.8686 3.55915 11.0314 3.62277 11.2011 3.62277C11.3709 3.62277 11.5337 3.55915 11.6537 3.44592C11.7737 3.33269 11.8412 3.17911 11.8412 3.01897V2.41518H12.6646C13.68 2.41518 14.5229 3.15936 14.5834 4.10912C14.5984 4.34883 14.6048 4.59005 14.6173 4.83036H1.38462C1.39742 4.59005 1.4035 4.34883 1.41854 4.10912C1.47902 3.15936 2.32163 2.41518 3.33736 2.41518H4.16076V3.01897C4.16076 3.17911 4.22819 3.33269 4.34822 3.44592C4.46825 3.55915 4.63105 3.62277 4.80079 3.62277Z" fill="#FEE411"/>
<path d="M4.79989 9.66099C5.33011 9.66099 5.75994 9.2555 5.75994 8.7553C5.75994 8.2551 5.33011 7.84961 4.79989 7.84961C4.26967 7.84961 3.83984 8.2551 3.83984 8.7553C3.83984 9.2555 4.26967 9.66099 4.79989 9.66099Z" fill="#FEE411"/>
<path d="M8.00107 9.66099C8.53129 9.66099 8.96112 9.2555 8.96112 8.7553C8.96112 8.2551 8.53129 7.84961 8.00107 7.84961C7.47084 7.84961 7.04102 8.2551 7.04102 8.7553C7.04102 9.2555 7.47084 9.66099 8.00107 9.66099Z" fill="#FEE411"/>
<path d="M4.79989 12.6795C5.33011 12.6795 5.75994 12.2741 5.75994 11.7739C5.75994 11.2737 5.33011 10.8682 4.79989 10.8682C4.26967 10.8682 3.83984 11.2737 3.83984 11.7739C3.83984 12.2741 4.26967 12.6795 4.79989 12.6795Z" fill="#FEE411"/>
<path d="M11.2013 9.66099C11.7315 9.66099 12.1613 9.2555 12.1613 8.7553C12.1613 8.2551 11.7315 7.84961 11.2013 7.84961C10.671 7.84961 10.2412 8.2551 10.2412 8.7553C10.2412 9.2555 10.671 9.66099 11.2013 9.66099Z" fill="#FEE411"/>
<path d="M11.2013 12.6795C11.7315 12.6795 12.1613 12.2741 12.1613 11.7739C12.1613 11.2737 11.7315 10.8682 11.2013 10.8682C10.671 10.8682 10.2412 11.2737 10.2412 11.7739C10.2412 12.2741 10.671 12.6795 11.2013 12.6795Z" fill="#FEE411"/>
<path d="M8.00107 12.6795C8.53129 12.6795 8.96112 12.2741 8.96112 11.7739C8.96112 11.2737 8.53129 10.8682 8.00107 10.8682C7.47084 10.8682 7.04102 11.2737 7.04102 11.7739C7.04102 12.2741 7.47084 12.6795 8.00107 12.6795Z" fill="#FEE411"/>
</svg>
